<svg width="195" height="191" viewBox="0 0 195 191" fill="none" xmlns="http://www.w3.org/2000/svg">
<path d="M58.0599 183.875C66.2813 192.198 79.7187 192.198 87.9401 183.875L139.422 131.758C147.502 123.578 147.502 110.422 139.422 102.242L87.9401 50.1245C79.7187 41.8017 66.2813 41.8017 58.0599 50.1245L6.5779 102.242C-1.50202 110.422 -1.50203 123.578 6.5779 131.758L58.0599 183.875Z" fill="#5ECFC2"/>
<path d="M107.06 158.875C115.281 167.198 128.719 167.198 136.94 158.875L188.422 106.758C196.502 98.578 196.502 85.4218 188.422 77.2421L136.94 25.1245C128.719 16.8017 115.281 16.8017 107.06 25.1245L55.5779 77.2421C47.498 85.4218 47.498 98.578 55.5779 106.758L107.06 158.875Z" fill="#4CD62B" fill-opacity="0.75"/>
<path d="M58.0599 7.1245C66.2813 -1.19834 79.7187 -1.19834 87.9401 7.1245L139.422 59.2421C147.502 67.4218 147.502 80.5782 139.422 88.7579L87.9401 140.875C79.7187 149.198 66.2813 149.198 58.0599 140.875L6.5779 88.7579C-1.50202 80.5782 -1.50203 67.4218 6.5779 59.2421L58.0599 7.1245Z" fill="#6C69F0" fill-opacity="0.75"/>
</svg>
