<svg width="211" height="207" viewBox="0 0 211 207" fill="none" xmlns="http://www.w3.org/2000/svg">
<g filter="url(#filter0_d)">
<path d="M66.0599 191.875C74.2813 200.198 87.7187 200.198 95.9401 191.875L147.422 139.758C155.502 131.578 155.502 118.422 147.422 110.242L95.9401 58.1245C87.7187 49.8017 74.2813 49.8017 66.0599 58.1245L14.5779 110.242C6.49798 118.422 6.49797 131.578 14.5779 139.758L66.0599 191.875Z" fill="#5ECFC2"/>
</g>
<g filter="url(#filter1_d)">
<path d="M115.06 166.875C123.281 175.198 136.719 175.198 144.94 166.875L196.422 114.758C204.502 106.578 204.502 93.4218 196.422 85.2421L144.94 33.1245C136.719 24.8017 123.281 24.8017 115.06 33.1245L63.5779 85.2421C55.498 93.4218 55.498 106.578 63.5779 114.758L115.06 166.875Z" fill="#81F38C"/>
</g>
<g filter="url(#filter2_d)">
<path d="M66.0599 15.1245C74.2813 6.80166 87.7187 6.80166 95.9401 15.1245L147.422 67.2421C155.502 75.4218 155.502 88.5782 147.422 96.7579L95.9401 148.875C87.7187 157.198 74.2813 157.198 66.0599 148.875L14.5779 96.7579C6.49798 88.5782 6.49797 75.4218 14.5779 67.2421L66.0599 15.1245Z" fill="#6C69F0" fill-opacity="0.75"/>
</g>
<g filter="url(#filter3_d)">
<path d="M63.784 59.96V105.72C65.1493 106.019 66.472 106.488 67.752 107.128C69.0747 107.768 70.4187 108.408 71.784 109.048C73.1493 109.688 74.5787 110.243 76.072 110.712C77.608 111.181 79.272 111.416 81.064 111.416C82.5573 111.416 84.2 110.989 85.992 110.136C86.12 110.733 86.184 111.309 86.184 111.864C86.184 112.76 86.0133 113.592 85.672 114.36C85.3733 115.171 84.904 115.875 84.264 116.472C83.6667 117.069 82.92 117.539 82.024 117.88C81.1707 118.264 80.2107 118.456 79.144 118.456C77.48 118.456 75.8373 117.923 74.216 116.856C72.5947 115.832 70.952 114.68 69.288 113.4C67.624 112.163 65.8747 111.011 64.04 109.944C62.248 108.92 60.328 108.408 58.28 108.408C58.024 108.408 57.768 108.408 57.512 108.408C57.2987 108.408 57.064 108.429 56.808 108.472V63.416C53.9493 64.2267 51.688 65.6133 50.024 67.576C48.36 69.5387 47.528 71.992 47.528 74.936C47.528 76.088 47.6133 77.0693 47.784 77.88C47.9547 78.648 48.168 79.3307 48.424 79.928C48.68 80.4827 48.9787 80.9733 49.32 81.4C49.704 81.784 50.088 82.1467 50.472 82.488C47.912 82.488 45.8853 81.912 44.392 80.76C42.8987 79.5653 42.152 77.56 42.152 74.744C42.152 72.696 42.6853 70.776 43.752 68.984C44.8187 67.1493 46.2267 65.5493 47.976 64.184C49.768 62.776 51.7947 61.6667 54.056 60.856C56.36 60.0453 58.728 59.64 61.16 59.64C61.6293 59.64 62.0773 59.6613 62.504 59.704C62.9733 59.704 63.4213 59.7253 63.848 59.768L63.784 59.96ZM98.608 107V83.96C96.9867 83.192 95.1307 82.552 93.04 82.04C90.992 81.4853 88.9013 81.08 86.768 80.824C86.256 82.7013 85.7867 84.6427 85.36 86.648C84.9333 88.6107 84.5707 90.5733 84.272 92.536C83.9733 94.456 83.7387 96.3547 83.568 98.232C83.3973 100.067 83.312 101.816 83.312 103.48C83.312 105.357 83.44 107.192 83.696 108.984C83.9947 110.776 84.6133 112.547 85.552 114.296C84.5707 114.296 83.5467 114.189 82.48 113.976C81.4133 113.763 80.432 113.272 79.536 112.504C78.64 111.779 77.8933 110.712 77.296 109.304C76.7413 107.939 76.464 106.083 76.464 103.736C76.464 102.243 76.5707 100.579 76.784 98.744C76.9973 96.9093 77.3173 94.9893 77.744 92.984C78.1707 90.9787 78.6827 88.9307 79.28 86.84C79.92 84.7067 80.624 82.616 81.392 80.568C80.1547 80.6107 78.9813 80.7173 77.872 80.888C76.8053 81.0587 75.8667 81.3147 75.056 81.656C74.288 81.9547 73.6693 82.3173 73.2 82.744C72.7307 83.1707 72.496 83.64 72.496 84.152C72.496 84.3227 72.5173 84.4507 72.56 84.536C73.6693 84.8773 74.224 85.5813 74.224 86.648C74.224 87.416 73.9467 87.9493 73.392 88.248C72.8373 88.5467 72.24 88.696 71.6 88.696C70.5333 88.696 69.552 88.3973 68.656 87.8C67.7173 87.16 67.248 86.072 67.248 84.536C67.248 83.512 67.568 82.5947 68.208 81.784C68.8053 80.9733 69.6373 80.2907 70.704 79.736C71.8133 79.1387 73.0933 78.6907 74.544 78.392C76.0373 78.0933 77.6587 77.944 79.408 77.944C79.8773 77.944 80.368 77.9653 80.88 78.008C81.392 78.008 81.904 78.0293 82.416 78.072C83.4827 75.512 84.6773 73.08 86 70.776C87.3227 68.4293 88.752 66.4027 90.288 64.696C91.824 62.9467 93.4453 61.56 95.152 60.536C96.8587 59.512 98.6507 59 100.528 59C101.168 59 101.957 59.064 102.896 59.192C103.877 59.32 104.795 59.5547 105.648 59.896V107H98.608ZM87.408 78.712C89.5413 79.096 91.5893 79.5867 93.552 80.184C95.5147 80.7387 97.2 81.3573 98.608 82.04V62.072C97.5413 62.1573 96.496 62.648 95.472 63.544C94.448 64.3973 93.4453 65.5707 92.464 67.064C91.5253 68.5573 90.6293 70.3067 89.776 72.312C88.9227 74.2747 88.1333 76.408 87.408 78.712Z" fill="white"/>
</g>
<defs>
<filter id="filter0_d" x="4.51796" y="51.8824" width="152.964" height="154.235" filterUnits="userSpaceOnUse" color-interpolation-filters="sRGB">
<feFlood flood-opacity="0" result="BackgroundImageFix"/>
<feColorMatrix in="SourceAlpha" type="matrix" values="0 0 0 0 0 0 0 0 0 0 0 0 0 0 0 0 0 0 127 0"/>
<feOffset dy="4"/>
<feGaussianBlur stdDeviation="2"/>
<feColorMatrix type="matrix" values="0 0 0 0 0 0 0 0 0 0 0 0 0 0 0 0 0 0 0.25 0"/>
<feBlend mode="normal" in2="BackgroundImageFix" result="effect1_dropShadow"/>
<feBlend mode="normal" in="SourceGraphic" in2="effect1_dropShadow" result="shape"/>
</filter>
<filter id="filter1_d" x="53.518" y="26.8824" width="152.964" height="154.235" filterUnits="userSpaceOnUse" color-interpolation-filters="sRGB">
<feFlood flood-opacity="0" result="BackgroundImageFix"/>
<feColorMatrix in="SourceAlpha" type="matrix" values="0 0 0 0 0 0 0 0 0 0 0 0 0 0 0 0 0 0 127 0"/>
<feOffset dy="4"/>
<feGaussianBlur stdDeviation="2"/>
<feColorMatrix type="matrix" values="0 0 0 0 0 0 0 0 0 0 0 0 0 0 0 0 0 0 0.25 0"/>
<feBlend mode="normal" in2="BackgroundImageFix" result="effect1_dropShadow"/>
<feBlend mode="normal" in="SourceGraphic" in2="effect1_dropShadow" result="shape"/>
</filter>
<filter id="filter2_d" x="4.51796" y="8.88237" width="152.964" height="154.235" filterUnits="userSpaceOnUse" color-interpolation-filters="sRGB">
<feFlood flood-opacity="0" result="BackgroundImageFix"/>
<feColorMatrix in="SourceAlpha" type="matrix" values="0 0 0 0 0 0 0 0 0 0 0 0 0 0 0 0 0 0 127 0"/>
<feOffset dy="4"/>
<feGaussianBlur stdDeviation="2"/>
<feColorMatrix type="matrix" values="0 0 0 0 0 0 0 0 0 0 0 0 0 0 0 0 0 0 0.25 0"/>
<feBlend mode="normal" in2="BackgroundImageFix" result="effect1_dropShadow"/>
<feBlend mode="normal" in="SourceGraphic" in2="effect1_dropShadow" result="shape"/>
</filter>
<filter id="filter3_d" x="38.152" y="59" width="71.496" height="67.456" filterUnits="userSpaceOnUse" color-interpolation-filters="sRGB">
<feFlood flood-opacity="0" result="BackgroundImageFix"/>
<feColorMatrix in="SourceAlpha" type="matrix" values="0 0 0 0 0 0 0 0 0 0 0 0 0 0 0 0 0 0 127 0"/>
<feOffset dy="4"/>
<feGaussianBlur stdDeviation="2"/>
<feColorMatrix type="matrix" values="0 0 0 0 0 0 0 0 0 0 0 0 0 0 0 0 0 0 0.25 0"/>
<feBlend mode="normal" in2="BackgroundImageFix" result="effect1_dropShadow"/>
<feBlend mode="normal" in="SourceGraphic" in2="effect1_dropShadow" result="shape"/>
</filter>
</defs>
</svg>
