<svg width="220" height="196" viewBox="0 0 220 196" fill="none" xmlns="http://www.w3.org/2000/svg">
<path d="M60.5419 188.993C68.7633 197.316 82.2007 197.316 90.4221 188.993L141.904 136.876C149.984 128.696 149.984 115.54 141.904 107.36L90.4221 55.2421C82.2007 46.9193 68.7633 46.9193 60.5419 55.2421L9.05994 107.36C0.980024 115.54 0.980013 128.696 9.05994 136.876L60.5419 188.993Z" fill="#5ECFC2"/>
<path d="M132.542 157.993C140.763 166.316 154.201 166.316 162.422 157.993L213.904 105.876C221.984 97.6956 221.984 84.5394 213.904 76.3597L162.422 24.2421C154.201 15.9193 140.763 15.9193 132.542 24.2421L81.0599 76.3597C72.98 84.5394 72.98 97.6956 81.0599 105.876L132.542 157.993Z" fill="#4CD62B" fill-opacity="0.75"/>
<path d="M57.5419 6.24213C65.7633 -2.08071 79.2007 -2.08071 87.4221 6.24213L138.904 58.3597C146.984 66.5394 146.984 79.6958 138.904 87.8755L87.4221 139.993C79.2007 148.316 65.7633 148.316 57.5419 139.993L6.05994 87.8755C-2.01998 79.6958 -2.01999 66.5394 6.05994 58.3597L57.5419 6.24213Z" fill="#6C69F0" fill-opacity="0.75"/>
<g filter="url(#filter0_d)">
<path d="M68.0469 139.461C67.1719 139.461 66.4062 139.422 65.75 139.344C65.0938 139.266 64.4766 139.078 63.8984 138.781C62.3828 138.047 61.625 136.578 61.625 134.375C61.625 133.312 61.7891 132.039 62.1172 130.555C62.4609 129.07 62.9453 127.469 63.5703 125.75C64.9453 121.969 66.6484 118.336 68.6797 114.852C67.0859 114.945 65.8203 115.188 64.8828 115.578C63.9609 115.953 63.3516 116.539 63.0547 117.336C63.1953 117.336 63.3359 117.5 63.4766 117.828C63.6172 118.156 63.6875 118.492 63.6875 118.836C63.6875 119.398 63.4297 119.852 62.9141 120.195C62.3984 120.539 61.7578 120.711 60.9922 120.711C60.1328 120.711 59.4297 120.477 58.8828 120.008C58.3047 119.523 58.0156 118.828 58.0156 117.922C58.0156 117.125 58.2578 116.367 58.7422 115.648C59.2266 114.914 59.9141 114.281 60.8047 113.75C61.7109 113.203 62.7578 112.781 63.9453 112.484C65.1484 112.172 66.4375 112.016 67.8125 112.016C68.4844 112.016 69.3203 112.062 70.3203 112.156C73.0078 107.922 75.6953 104.602 78.3828 102.195C81.5078 99.3984 84.3828 98 87.0078 98C88.5703 98 89.8359 98.2266 90.8047 98.6797L83.2812 134H76.3672L80.0469 116.586C78.8906 116.055 77.8047 115.656 76.7891 115.391C75.7891 115.125 74.7344 114.945 73.625 114.852C71.8125 118.773 70.3281 122.781 69.1719 126.875C67.9844 130.984 67.3906 134.289 67.3906 136.789C67.3906 138.023 67.6094 138.914 68.0469 139.461ZM83.2812 101.398C81.8906 102.148 80.4297 103.562 78.8984 105.641C77.3984 107.703 75.9766 110.086 74.6328 112.789C76.8203 113.211 78.7734 113.766 80.4922 114.453L83.2812 101.398ZM116.492 146C115.43 146 114.359 145.75 113.281 145.25C112.203 144.766 111.039 144.07 109.789 143.164C108.648 142.367 107.516 141.492 106.391 140.539C103.75 138.352 101.336 136.805 99.1484 135.898C97.8828 135.367 96.5234 135.102 95.0703 135.102H94.5312C94.4375 135.102 94.25 135.117 93.9688 135.148L101.117 101.891C98.9609 102.781 97.3047 104.109 96.1484 105.875C94.9922 107.625 94.4141 109.781 94.4141 112.344C94.4141 113.328 94.5234 114.133 94.7422 114.758C94.8047 114.961 94.8828 115.141 94.9766 115.297C95.0391 115.406 95.0703 115.516 95.0703 115.625C93.3359 115.625 92.0703 115.273 91.2734 114.57C90.3828 113.82 89.9375 112.617 89.9375 110.961C89.9375 109.914 90.1641 108.883 90.6172 107.867C91.0703 106.836 91.7109 105.844 92.5391 104.891C93.3359 103.969 94.2734 103.117 95.3516 102.336C96.4453 101.539 97.6172 100.852 98.8672 100.273C101.523 99.0703 104.164 98.4688 106.789 98.4688C107.367 98.4688 108.008 98.5078 108.711 98.5859L101.328 133.039C102.094 133.211 102.867 133.469 103.648 133.812C104.445 134.156 105.352 134.602 106.367 135.148L108.992 136.555C111.023 137.664 112.859 138.43 114.5 138.852C115.438 139.102 116.422 139.227 117.453 139.227C118.906 139.227 120.25 138.969 121.484 138.453C121.203 140.797 120.633 142.633 119.773 143.961C119.352 144.617 118.859 145.117 118.297 145.461C117.75 145.82 117.148 146 116.492 146ZM119.305 101.398C117.148 102.289 115.492 103.617 114.336 105.383C113.18 107.148 112.602 109.312 112.602 111.875C112.602 112.875 112.711 113.672 112.93 114.266C112.992 114.469 113.07 114.648 113.164 114.805C113.227 114.914 113.258 115.023 113.258 115.133C111.523 115.133 110.258 114.789 109.461 114.102C108.57 113.352 108.125 112.141 108.125 110.469C108.125 109.422 108.352 108.391 108.805 107.375C109.258 106.344 109.898 105.352 110.727 104.398C111.508 103.492 112.438 102.648 113.516 101.867C114.609 101.07 115.789 100.383 117.055 99.8047C119.711 98.6016 122.352 98 124.977 98C125.695 98 126.336 98.0312 126.898 98.0938L119.258 134H112.367L119.305 101.398ZM137.75 101.211C135.469 102.07 133.703 103.406 132.453 105.219C131.219 107.016 130.602 109.234 130.602 111.875C130.602 112.875 130.711 113.672 130.93 114.266C130.992 114.469 131.07 114.648 131.164 114.805C131.227 114.914 131.258 115.023 131.258 115.133C129.523 115.133 128.258 114.789 127.461 114.102C126.57 113.352 126.125 112.141 126.125 110.469C126.125 109.422 126.352 108.391 126.805 107.375C127.258 106.344 127.898 105.352 128.727 104.398C129.508 103.492 130.438 102.648 131.516 101.867C132.609 101.07 133.789 100.383 135.055 99.8047C137.711 98.6016 140.352 98 142.977 98C143.695 98 144.336 98.0312 144.898 98.0938L145.32 127.625L155.422 98.2344H158.773L145.438 134H138.523L137.75 101.211ZM164.539 134.867C163.039 134.867 161.727 134.641 160.602 134.188C159.477 133.75 158.547 133.125 157.812 132.312C157.109 131.547 156.578 130.656 156.219 129.641C155.875 128.625 155.703 127.547 155.703 126.406C155.703 125.141 155.906 123.852 156.312 122.539C156.719 121.211 157.305 119.977 158.07 118.836C158.852 117.648 159.789 116.633 160.883 115.789C161.992 114.945 163.227 114.344 164.586 113.984C163.586 113.266 162.844 112.406 162.359 111.406C161.891 110.406 161.656 109.344 161.656 108.219C161.656 106.984 161.914 105.758 162.43 104.539C162.961 103.305 163.695 102.195 164.633 101.211C165.602 100.18 166.727 99.375 168.008 98.7969C169.305 98.2031 170.695 97.9062 172.18 97.9062C173.133 97.9062 174.031 98.0391 174.875 98.3047C175.719 98.5547 176.445 98.9297 177.055 99.4297C177.695 99.9453 178.188 100.578 178.531 101.328C178.875 102.078 179.047 102.938 179.047 103.906C179.047 104.609 178.953 105.266 178.766 105.875C178.578 106.484 178.32 107.016 177.992 107.469C177.664 107.922 177.281 108.273 176.844 108.523C176.406 108.773 175.953 108.898 175.484 108.898C174.609 108.898 173.859 108.469 173.234 107.609C173.5 107.516 173.766 107.328 174.031 107.047C174.297 106.75 174.531 106.398 174.734 105.992C174.922 105.602 175.07 105.18 175.18 104.727C175.289 104.273 175.344 103.836 175.344 103.414C175.344 102.508 175.07 101.812 174.523 101.328C174.07 100.938 173.461 100.742 172.695 100.742C172.008 100.742 171.359 100.93 170.75 101.305C170.141 101.68 169.617 102.195 169.18 102.852C168.742 103.492 168.398 104.219 168.148 105.031C167.914 105.844 167.797 106.672 167.797 107.516C167.797 109.031 168.172 110.336 168.922 111.43C169.734 112.648 170.977 113.484 172.648 113.938C171.023 114.297 169.523 115.125 168.148 116.422C166.914 117.609 165.922 119.039 165.172 120.711C164.438 122.383 164.07 123.945 164.07 125.398C164.07 126.852 164.422 128 165.125 128.844C165.906 129.781 167.07 130.25 168.617 130.25C169.383 130.25 170.188 130.148 171.031 129.945C171.891 129.727 172.711 129.414 173.492 129.008C175.305 128.086 176.641 126.867 177.5 125.352L178.602 125.844C177.336 128.609 175.406 130.812 172.812 132.453C171.562 133.234 170.234 133.828 168.828 134.234C167.422 134.656 165.992 134.867 164.539 134.867Z" fill="white"/>
</g>
<g filter="url(#filter1_d)">
<path d="M43.8828 104C42.8203 104 41.75 103.75 40.6719 103.25C39.5938 102.766 38.4297 102.07 37.1797 101.164C36.0391 100.367 34.9062 99.4922 33.7812 98.5391C31.1406 96.3516 28.7266 94.8047 26.5391 93.8984C25.2734 93.3672 23.9141 93.1016 22.4609 93.1016H21.9219C21.8281 93.1016 21.6406 93.1172 21.3594 93.1484L28.5078 59.8906C26.3516 60.7812 24.6953 62.1094 23.5391 63.875C22.3828 65.625 21.8047 67.7812 21.8047 70.3438C21.8047 71.3281 21.9141 72.1328 22.1328 72.7578C22.1953 72.9609 22.2734 73.1406 22.3672 73.2969C22.4297 73.4062 22.4609 73.5156 22.4609 73.625C20.7266 73.625 19.4609 73.2734 18.6641 72.5703C17.7734 71.8203 17.3281 70.6172 17.3281 68.9609C17.3281 67.9141 17.5547 66.8828 18.0078 65.8672C18.4609 64.8359 19.1016 63.8438 19.9297 62.8906C20.7266 61.9688 21.6641 61.1172 22.7422 60.3359C23.8359 59.5391 25.0078 58.8516 26.2578 58.2734C28.9141 57.0703 31.5547 56.4688 34.1797 56.4688C34.7578 56.4688 35.3984 56.5078 36.1016 56.5859L28.7188 91.0391C29.4844 91.2109 30.2578 91.4688 31.0391 91.8125C31.8359 92.1562 32.7422 92.6016 33.7578 93.1484L36.3828 94.5547C38.4141 95.6641 40.25 96.4297 41.8906 96.8516C42.8281 97.1016 43.8125 97.2266 44.8438 97.2266C46.2969 97.2266 47.6406 96.9688 48.875 96.4531C48.5938 98.7969 48.0234 100.633 47.1641 101.961C46.7422 102.617 46.25 103.117 45.6875 103.461C45.1406 103.82 44.5391 104 43.8828 104ZM49.0156 92.2812C46.3438 92.2812 44.2812 91.5547 42.8281 90.1016C41.2188 88.4922 40.4141 86.0078 40.4141 82.6484C40.4141 81.3203 40.5391 79.8438 40.7891 78.2188C41.0391 76.5938 41.3984 74.9688 41.8672 73.3438C42.3672 71.6094 42.9844 69.9531 43.7188 68.375C44.4688 66.7969 45.3047 65.4141 46.2266 64.2266C48.3672 61.4922 50.7656 60.125 53.4219 60.125C53.9062 60.125 54.3359 60.1562 54.7109 60.2188C55.1016 60.2656 55.5078 60.3672 55.9297 60.5234C54.5391 61.3359 53.1641 63.1016 51.8047 65.8203C50.5547 68.3359 49.5312 71.1719 48.7344 74.3281C47.9219 77.5 47.5156 80.3359 47.5156 82.8359C47.5156 84.5234 47.7344 85.8516 48.1719 86.8203C48.6406 87.8672 49.3516 88.3906 50.3047 88.3906C51.0859 88.3906 51.875 88.0859 52.6719 87.4766C53.4844 86.8672 54.2812 86.0078 55.0625 84.8984C55.8125 83.8203 56.5078 82.5703 57.1484 81.1484C57.7891 79.7109 58.3438 78.1797 58.8125 76.5547C59.8281 73.0547 60.3359 69.7422 60.3359 66.6172C60.3359 65.1172 60.25 63.8594 60.0781 62.8438C59.9062 61.8281 59.6016 60.9844 59.1641 60.3125C58.6953 59.5938 58.0625 59.0625 57.2656 58.7188C56.4688 58.375 55.4453 58.2031 54.1953 58.2031C52.3672 58.2031 50.6172 58.4922 48.9453 59.0703C47.2734 59.6328 45.8047 60.4453 44.5391 61.5078C43.2266 62.6172 42.2031 63.9375 41.4688 65.4688C40.7344 67 40.3672 68.6953 40.3672 70.5547C40.3672 71.2578 40.4531 71.8672 40.625 72.3828C40.6719 72.5859 40.7266 72.7344 40.7891 72.8281C40.8359 72.9375 40.8594 73.0391 40.8594 73.1328C39.2656 73.1328 38.0547 72.8203 37.2266 72.1953C36.4141 71.5547 36.0078 70.5234 36.0078 69.1016C36.0078 66.8984 36.9297 64.7656 38.7734 62.7031C40.5859 60.7031 42.9375 59.1016 45.8281 57.8984C48.875 56.6328 52.0469 56 55.3438 56C59.3438 56 62.2891 57.1484 64.1797 59.4453C65.8672 61.5078 66.7109 64.4531 66.7109 68.2812C66.7109 69.8906 66.5625 71.5859 66.2656 73.3672C65.9688 75.1484 65.5234 76.8984 64.9297 78.6172C64.2734 80.4922 63.4609 82.2422 62.4922 83.8672C61.5391 85.4922 60.4375 86.9062 59.1875 88.1094C56.2969 90.8906 52.9062 92.2812 49.0156 92.2812ZM80.9375 92.2812C78.2656 92.2812 76.2031 91.5547 74.75 90.1016C73.1406 88.4922 72.3359 86.0078 72.3359 82.6484C72.3359 81.3203 72.4609 79.8438 72.7109 78.2188C72.9609 76.5938 73.3203 74.9688 73.7891 73.3438C74.2891 71.6094 74.9062 69.9531 75.6406 68.375C76.3906 66.7969 77.2266 65.4141 78.1484 64.2266C80.2891 61.4922 82.6875 60.125 85.3438 60.125C85.8281 60.125 86.2578 60.1562 86.6328 60.2188C87.0234 60.2656 87.4297 60.3672 87.8516 60.5234C86.4609 61.3359 85.0859 63.1016 83.7266 65.8203C82.4766 68.3359 81.4531 71.1719 80.6562 74.3281C79.8438 77.5 79.4375 80.3359 79.4375 82.8359C79.4375 84.5234 79.6562 85.8516 80.0938 86.8203C80.5625 87.8672 81.2734 88.3906 82.2266 88.3906C83.0078 88.3906 83.7969 88.0859 84.5938 87.4766C85.4062 86.8672 86.2031 86.0078 86.9844 84.8984C87.7344 83.8203 88.4297 82.5703 89.0703 81.1484C89.7109 79.7109 90.2656 78.1797 90.7344 76.5547C91.75 73.0547 92.2578 69.7422 92.2578 66.6172C92.2578 65.1172 92.1719 63.8594 92 62.8438C91.8281 61.8281 91.5234 60.9844 91.0859 60.3125C90.6172 59.5938 89.9844 59.0625 89.1875 58.7188C88.3906 58.375 87.3672 58.2031 86.1172 58.2031C84.2891 58.2031 82.5391 58.4922 80.8672 59.0703C79.1953 59.6328 77.7266 60.4453 76.4609 61.5078C75.1484 62.6172 74.125 63.9375 73.3906 65.4688C72.6562 67 72.2891 68.6953 72.2891 70.5547C72.2891 71.2578 72.375 71.8672 72.5469 72.3828C72.5938 72.5859 72.6484 72.7344 72.7109 72.8281C72.7578 72.9375 72.7812 73.0391 72.7812 73.1328C71.1875 73.1328 69.9766 72.8203 69.1484 72.1953C68.3359 71.5547 67.9297 70.5234 67.9297 69.1016C67.9297 66.8984 68.8516 64.7656 70.6953 62.7031C72.5078 60.7031 74.8594 59.1016 77.75 57.8984C80.7969 56.6328 83.9688 56 87.2656 56C91.2656 56 94.2109 57.1484 96.1016 59.4453C97.7891 61.5078 98.6328 64.4531 98.6328 68.2812C98.6328 69.8906 98.4844 71.5859 98.1875 73.3672C97.8906 75.1484 97.4453 76.8984 96.8516 78.6172C96.1953 80.4922 95.3828 82.2422 94.4141 83.8672C93.4609 85.4922 92.3594 86.9062 91.1094 88.1094C88.2188 90.8906 84.8281 92.2812 80.9375 92.2812ZM120.008 92.8203C118.617 92.8203 117.609 92.4688 116.984 91.7656C116.5 91.2344 116.258 90.5156 116.258 89.6094C116.258 88.8906 116.367 88.0625 116.586 87.125C116.805 86.1719 117.125 84.9453 117.547 83.4453C117.969 81.9297 118.281 80.6797 118.484 79.6953C118.703 78.7109 118.812 77.8047 118.812 76.9766C118.812 75.9609 118.602 75.1719 118.18 74.6094C117.711 74.0156 116.961 73.7188 115.93 73.7188C115.32 73.7188 114.789 73.7812 114.336 73.9062L110.492 92H103.602L110.539 59.3516C108.383 60.2578 106.727 61.6016 105.57 63.3828C104.414 65.1641 103.836 67.3281 103.836 69.875C103.836 70.875 103.945 71.6719 104.164 72.2656C104.227 72.4688 104.305 72.6484 104.398 72.8047C104.461 72.9141 104.492 73.0234 104.492 73.1328C102.758 73.1328 101.492 72.7891 100.695 72.1016C99.8047 71.3516 99.3594 70.1406 99.3594 68.4688C99.3594 67.4219 99.5859 66.3906 100.039 65.375C100.492 64.3438 101.133 63.3516 101.961 62.3984C102.742 61.4922 103.672 60.6484 104.75 59.8672C105.844 59.0703 107.023 58.3828 108.289 57.8047C110.945 56.6016 113.586 56 116.211 56C116.93 56 117.57 56.0312 118.133 56.0938L115.016 70.7891L116.375 68.9844C117.234 67.7969 118.383 66.2578 119.82 64.3672L121.602 61.9531L123.266 59.7266L124.625 57.8984L125.562 56.6797L125.914 56.2344H130.953L117.617 71.6094C118.023 71.6094 118.312 71.6016 118.484 71.5859C118.656 71.5703 118.922 71.5625 119.281 71.5625C121.469 71.5625 123.047 72.0469 124.016 73.0156C124.828 73.8438 125.234 75.0703 125.234 76.6953C125.234 77.5859 125.133 78.5391 124.93 79.5547C124.727 80.5547 124.438 81.7422 124.062 83.1172C123.641 84.6484 123.336 85.8203 123.148 86.6328C122.977 87.4297 122.891 88.1641 122.891 88.8359C122.891 89.5859 123.055 90.25 123.383 90.8281C123.727 91.3906 124.188 91.7812 124.766 92C122.844 92.5469 121.258 92.8203 120.008 92.8203Z" fill="white"/>
</g>
<defs>
<filter id="filter0_d" x="41.0156" y="82.9062" width="159.031" height="86.0938" filterUnits="userSpaceOnUse" color-interpolation-filters="sRGB">
<feFlood flood-opacity="0" result="BackgroundImageFix"/>
<feColorMatrix in="SourceAlpha" type="matrix" values="0 0 0 0 0 0 0 0 0 0 0 0 0 0 0 0 0 0 127 0"/>
<feOffset dx="2" dy="4"/>
<feGaussianBlur stdDeviation="9.5"/>
<feColorMatrix type="matrix" values="0 0 0 0 0 0 0 0 0 0 0 0 0 0 0 0 0 0 1 0"/>
<feBlend mode="normal" in2="BackgroundImageFix" result="effect1_dropShadow"/>
<feBlend mode="normal" in="SourceGraphic" in2="effect1_dropShadow" result="shape"/>
</filter>
<filter id="filter1_d" x="0.328125" y="41" width="151.625" height="86" filterUnits="userSpaceOnUse" color-interpolation-filters="sRGB">
<feFlood flood-opacity="0" result="BackgroundImageFix"/>
<feColorMatrix in="SourceAlpha" type="matrix" values="0 0 0 0 0 0 0 0 0 0 0 0 0 0 0 0 0 0 127 0"/>
<feOffset dx="2" dy="4"/>
<feGaussianBlur stdDeviation="9.5"/>
<feColorMatrix type="matrix" values="0 0 0 0 0 0 0 0 0 0 0 0 0 0 0 0 0 0 1 0"/>
<feBlend mode="normal" in2="BackgroundImageFix" result="effect1_dropShadow"/>
<feBlend mode="normal" in="SourceGraphic" in2="effect1_dropShadow" result="shape"/>
</filter>
</defs>
</svg>
