<svg width="281" height="164" viewBox="0 0 281 164" fill="none" xmlns="http://www.w3.org/2000/svg">
<g filter="url(#filter0_d)">
<path d="M66.0599 148.875C74.2813 157.198 87.7187 157.198 95.9401 148.875L147.422 96.7579C155.502 88.5782 155.502 75.4218 147.422 67.2421L95.9401 15.1245C87.7187 6.80166 74.2813 6.80166 66.0599 15.1245L14.5779 67.2421C6.49798 75.4218 6.49797 88.5782 14.5779 96.7579L66.0599 148.875Z" fill="#5ECFC2"/>
</g>
<g filter="url(#filter1_d)">
<path d="M185.06 148.875C193.281 157.198 206.719 157.198 214.94 148.875L266.422 96.7579C274.502 88.5782 274.502 75.4218 266.422 67.2421L214.94 15.1245C206.719 6.80166 193.281 6.80166 185.06 15.1245L133.578 67.2421C125.498 75.4218 125.498 88.5782 133.578 96.7579L185.06 148.875Z" fill="#81F38C"/>
</g>
<g filter="url(#filter2_d)">
<path d="M124.06 15.1245C132.281 6.80166 145.719 6.80166 153.94 15.1245L205.422 67.2421C213.502 75.4218 213.502 88.5782 205.422 96.7579L153.94 148.875C145.719 157.198 132.281 157.198 124.06 148.875L72.5779 96.7579C64.498 88.5782 64.498 75.4218 72.5779 67.2421L124.06 15.1245Z" fill="#6C69F0" fill-opacity="0.75"/>
</g>
<g filter="url(#filter3_d)">
<path d="M72.95 113.5C71.45 113.5 69.9667 113.067 68.5 112.2C67.0667 111.367 65.2333 110.067 63 108.3C61.3333 106.967 59.9 105.883 58.7 105.05C57.5333 104.25 56.25 103.567 54.85 103C53.4833 102.433 52.0833 102.15 50.65 102.15C50.15 102.15 49.7667 102.167 49.5 102.2L56.95 67.55C54.7167 68.45 52.9833 69.8333 51.75 71.7C50.55 73.5333 49.95 75.7833 49.95 78.45C49.95 79.6833 50.0667 80.55 50.3 81.05C50.5333 81.5167 50.65 81.7833 50.65 81.85C48.85 81.85 47.5 81.4833 46.6 80.75C45.7333 79.9833 45.3 78.7333 45.3 77C45.3 74.8667 46.1667 72.8 47.9 70.8C49.6667 68.7667 51.9167 67.1333 54.65 65.9C57.3833 64.6333 60.1167 64 62.85 64C63.3167 64 63.9833 64.0333 64.85 64.1L57.15 100C58.0833 100.233 59.0333 100.567 60 101C61 101.467 62.2 102.083 63.6 102.85C65.7667 104.017 67.6167 104.9 69.15 105.5C70.6833 106.133 72.2833 106.45 73.95 106.45C75.45 106.45 76.85 106.183 78.15 105.65C77.8833 108.083 77.2833 110 76.35 111.4C75.45 112.8 74.3167 113.5 72.95 113.5ZM71.2453 101.2C68.7786 101.2 66.8286 100.567 65.3953 99.3C63.962 98.0333 63.2453 96.0333 63.2453 93.3C63.2453 91.0333 63.712 88.5167 64.6453 85.75C65.5786 82.9833 67.0786 80.6 69.1453 78.6C71.212 76.5667 73.812 75.55 76.9453 75.55C81.212 75.55 83.3453 78.2167 83.3453 83.55V83.6C83.4453 83.6333 83.6286 83.65 83.8953 83.65C84.9953 83.65 86.262 83.3667 87.6953 82.8C89.1286 82.2 90.4286 81.4833 91.5953 80.65L92.0453 82C91.0786 83.0333 89.812 83.9167 88.2453 84.65C86.712 85.35 85.0286 85.85 83.1953 86.15C82.9286 89.1833 82.2453 91.8333 81.1453 94.1C80.0453 96.3667 78.6286 98.1167 76.8953 99.35C75.162 100.583 73.2786 101.2 71.2453 101.2ZM73.2453 96.7C74.0453 96.7 74.8453 96.25 75.6453 95.35C76.4453 94.4167 77.1453 93.1667 77.7453 91.6C78.3453 90 78.7786 88.2333 79.0453 86.3C78.1453 86.1 77.6953 85.4 77.6953 84.2C77.6953 82.8333 78.212 81.9333 79.2453 81.5C79.1786 80.4 79.012 79.65 78.7453 79.25C78.4786 78.8167 78.012 78.6 77.3453 78.6C76.2453 78.6 75.1786 79.4 74.1453 81C73.112 82.6 72.2786 84.5167 71.6453 86.75C71.012 88.9833 70.6953 90.95 70.6953 92.65C70.6953 94.25 70.8786 95.3333 71.2453 95.9C71.612 96.4333 72.2786 96.7 73.2453 96.7ZM93.218 101.2C90.7513 101.2 88.8013 100.567 87.368 99.3C85.9346 98.0333 85.218 96.0333 85.218 93.3C85.218 91.0333 85.6846 88.5167 86.618 85.75C87.5513 82.9833 89.0513 80.6 91.118 78.6C93.1846 76.5667 95.7846 75.55 98.918 75.55C103.185 75.55 105.318 78.2167 105.318 83.55V83.6C105.418 83.6333 105.601 83.65 105.868 83.65C106.968 83.65 108.235 83.3667 109.668 82.8C111.101 82.2 112.401 81.4833 113.568 80.65L114.018 82C113.051 83.0333 111.785 83.9167 110.218 84.65C108.685 85.35 107.001 85.85 105.168 86.15C104.901 89.1833 104.218 91.8333 103.118 94.1C102.018 96.3667 100.601 98.1167 98.868 99.35C97.1346 100.583 95.2513 101.2 93.218 101.2ZM95.218 96.7C96.018 96.7 96.818 96.25 97.618 95.35C98.418 94.4167 99.118 93.1667 99.718 91.6C100.318 90 100.751 88.2333 101.018 86.3C100.118 86.1 99.668 85.4 99.668 84.2C99.668 82.8333 100.185 81.9333 101.218 81.5C101.151 80.4 100.985 79.65 100.718 79.25C100.451 78.8167 99.9846 78.6 99.318 78.6C98.218 78.6 97.1513 79.4 96.118 81C95.0846 82.6 94.2513 84.5167 93.618 86.75C92.9846 88.9833 92.668 90.95 92.668 92.65C92.668 94.25 92.8513 95.3333 93.218 95.9C93.5846 96.4333 94.2513 96.7 95.218 96.7ZM126.691 101.3C124.624 101.3 123.057 100.817 121.991 99.85C120.924 98.85 120.391 97.4333 120.391 95.6C120.391 94.8 120.491 93.9333 120.691 93L121.091 91.05C121.224 90.4833 121.291 89.8667 121.291 89.2C121.291 87.6 120.691 86.8 119.491 86.8C118.957 86.8 118.391 86.95 117.791 87.25C117.224 87.55 116.557 88.0167 115.791 88.65L113.191 101H105.991L113.241 67L120.641 66L116.891 83.6L126.541 76H131.491L121.491 82.95C121.991 82.8167 122.541 82.75 123.141 82.75C124.941 82.75 126.307 83.3 127.241 84.4C128.174 85.5 128.641 86.9 128.641 88.6C128.641 89.3 128.574 89.9333 128.441 90.5L127.891 93C127.724 93.6 127.641 94.1333 127.641 94.6C127.641 95.8333 128.291 96.45 129.591 96.45C130.324 96.45 130.791 96.4 130.991 96.3C131.191 96.2 131.307 96.15 131.341 96.15C131.274 97.25 130.957 98.1833 130.391 98.95C129.857 99.7167 129.224 100.3 128.491 100.7C127.791 101.1 127.191 101.3 126.691 101.3ZM153.214 106.7C151.981 106.7 150.898 106.6 149.964 106.4C149.031 106.2 148.214 105.717 147.514 104.95C146.848 104.183 146.514 103 146.514 101.4C146.514 99.1667 147.181 96.1667 148.514 92.4C149.881 88.6333 151.664 84.85 153.864 81.05C152.198 81.15 150.881 81.4 149.914 81.8C148.948 82.2 148.314 82.8167 148.014 83.65C148.148 83.65 148.281 83.8167 148.414 84.15C148.581 84.4833 148.664 84.8333 148.664 85.2C148.664 85.8 148.398 86.2833 147.864 86.65C147.331 86.9833 146.664 87.15 145.864 87.15C144.931 87.15 144.181 86.9 143.614 86.4C143.048 85.9 142.764 85.1833 142.764 84.25C142.764 83.1167 143.198 82.0833 144.064 81.15C144.964 80.2167 146.198 79.4833 147.764 78.95C149.331 78.3833 151.064 78.1 152.964 78.1C153.664 78.1 154.531 78.15 155.564 78.25C158.298 73.9167 161.181 70.3833 164.214 67.65C167.281 64.8833 170.198 63.5 172.964 63.5C174.564 63.5 175.881 63.7333 176.914 64.2L169.064 101H161.864L165.714 82.85C164.481 82.2833 163.348 81.8667 162.314 81.6C161.281 81.3333 160.181 81.15 159.014 81.05C157.114 85.15 155.548 89.35 154.314 93.65C153.114 97.9167 152.514 101.333 152.514 103.9C152.514 105.167 152.748 106.1 153.214 106.7ZM169.064 67.05C167.631 67.8167 166.131 69.25 164.564 71.35C163.031 73.4167 161.531 75.9333 160.064 78.9C162.464 79.3667 164.498 79.95 166.164 80.65L169.064 67.05ZM180.663 101.3C179.063 101.3 177.763 100.8 176.763 99.8C175.796 98.8 175.313 97.3 175.313 95.3C175.313 94.4667 175.446 93.3833 175.713 92.05L181.063 67L188.463 66L182.713 93C182.58 93.5 182.513 94.0333 182.513 94.6C182.513 95.2667 182.663 95.75 182.963 96.05C183.296 96.3167 183.83 96.45 184.563 96.45C185.53 96.45 186.43 96.05 187.263 95.25C188.096 94.4167 188.696 93.35 189.063 92.05H191.163C189.93 95.65 188.346 98.1 186.413 99.4C184.48 100.667 182.563 101.3 180.663 101.3ZM197.393 73.3C196.293 73.3 195.36 72.9167 194.593 72.15C193.826 71.3833 193.443 70.45 193.443 69.35C193.443 68.25 193.826 67.3167 194.593 66.55C195.36 65.75 196.293 65.35 197.393 65.35C198.493 65.35 199.426 65.75 200.193 66.55C200.993 67.3167 201.393 68.25 201.393 69.35C201.393 70.45 200.993 71.3833 200.193 72.15C199.426 72.9167 198.493 73.3 197.393 73.3ZM193.993 101.3C192.393 101.3 191.093 100.8 190.093 99.8C189.126 98.8 188.643 97.3 188.643 95.3C188.643 94.4667 188.776 93.3833 189.043 92.05L192.443 76H199.643L196.043 93C195.91 93.5 195.843 94.0333 195.843 94.6C195.843 95.2667 195.993 95.75 196.293 96.05C196.626 96.3167 197.16 96.45 197.893 96.45C198.86 96.45 199.76 96.05 200.593 95.25C201.426 94.4167 202.026 93.35 202.393 92.05H204.493C203.26 95.65 201.676 98.1 199.743 99.4C197.81 100.667 195.893 101.3 193.993 101.3ZM208.073 101.3C206.14 101.3 204.623 100.817 203.523 99.85C202.456 98.85 201.923 97.3667 201.923 95.4C201.923 94.6 202.006 93.8 202.173 93L205.773 76H212.973L209.373 93C209.206 93.8333 209.123 94.4333 209.123 94.8C209.123 95.9 209.69 96.45 210.823 96.45C212.356 96.45 213.773 95.4833 215.073 93.55C216.406 91.6167 217.473 89.3167 218.273 86.65C219.073 83.9833 219.473 81.6833 219.473 79.75C219.406 79.9167 219.19 80.05 218.823 80.15C218.456 80.2167 218.14 80.25 217.873 80.25C217.306 80.25 216.856 79.9833 216.523 79.45C216.223 78.9167 216.073 78.3333 216.073 77.7C216.073 76.9 216.323 76.25 216.823 75.75C217.356 75.25 218.14 75 219.173 75C220.273 75 221.073 75.4167 221.573 76.25C222.073 77.05 222.323 78.0833 222.323 79.35C222.323 82.35 221.806 85.5667 220.773 89C219.74 92.4 218.156 95.3 216.023 97.7C213.89 100.1 211.24 101.3 208.073 101.3ZM230.126 101.3C227.693 101.3 225.793 100.667 224.426 99.4C223.06 98.1 222.376 96.0833 222.376 93.35C222.376 91.05 222.826 88.5167 223.726 85.75C224.626 82.9833 226.093 80.6 228.126 78.6C230.16 76.5667 232.743 75.55 235.876 75.55C239.543 75.55 241.376 77.15 241.376 80.35C241.376 82.2167 240.843 83.9333 239.776 85.5C238.71 87.0667 237.293 88.3333 235.526 89.3C233.76 90.2333 231.876 90.7667 229.876 90.9C229.81 91.6333 229.776 92.1333 229.776 92.4C229.776 95.1667 230.81 96.55 232.876 96.55C233.81 96.55 234.81 96.3 235.876 95.8C236.943 95.3 237.91 94.6667 238.776 93.9C237.876 98.8333 234.993 101.3 230.126 101.3ZM230.226 88.5C231.493 88.4667 232.676 88.05 233.776 87.25C234.91 86.45 235.81 85.4333 236.476 84.2C237.176 82.9333 237.526 81.6167 237.526 80.25C237.526 78.8833 237.11 78.2 236.276 78.2C235.11 78.2 233.943 79.2667 232.776 81.4C231.643 83.5 230.793 85.8667 230.226 88.5Z" fill="white"/>
</g>
<defs>
<filter id="filter0_d" x="4.51794" y="8.88237" width="152.964" height="154.235" filterUnits="userSpaceOnUse" color-interpolation-filters="sRGB">
<feFlood flood-opacity="0" result="BackgroundImageFix"/>
<feColorMatrix in="SourceAlpha" type="matrix" values="0 0 0 0 0 0 0 0 0 0 0 0 0 0 0 0 0 0 127 0"/>
<feOffset dy="4"/>
<feGaussianBlur stdDeviation="2"/>
<feColorMatrix type="matrix" values="0 0 0 0 0 0 0 0 0 0 0 0 0 0 0 0 0 0 0.25 0"/>
<feBlend mode="normal" in2="BackgroundImageFix" result="effect1_dropShadow"/>
<feBlend mode="normal" in="SourceGraphic" in2="effect1_dropShadow" result="shape"/>
</filter>
<filter id="filter1_d" x="123.518" y="8.88237" width="152.964" height="154.235" filterUnits="userSpaceOnUse" color-interpolation-filters="sRGB">
<feFlood flood-opacity="0" result="BackgroundImageFix"/>
<feColorMatrix in="SourceAlpha" type="matrix" values="0 0 0 0 0 0 0 0 0 0 0 0 0 0 0 0 0 0 127 0"/>
<feOffset dy="4"/>
<feGaussianBlur stdDeviation="2"/>
<feColorMatrix type="matrix" values="0 0 0 0 0 0 0 0 0 0 0 0 0 0 0 0 0 0 0.25 0"/>
<feBlend mode="normal" in2="BackgroundImageFix" result="effect1_dropShadow"/>
<feBlend mode="normal" in="SourceGraphic" in2="effect1_dropShadow" result="shape"/>
</filter>
<filter id="filter2_d" x="62.518" y="8.88237" width="152.964" height="154.235" filterUnits="userSpaceOnUse" color-interpolation-filters="sRGB">
<feFlood flood-opacity="0" result="BackgroundImageFix"/>
<feColorMatrix in="SourceAlpha" type="matrix" values="0 0 0 0 0 0 0 0 0 0 0 0 0 0 0 0 0 0 127 0"/>
<feOffset dy="4"/>
<feGaussianBlur stdDeviation="2"/>
<feColorMatrix type="matrix" values="0 0 0 0 0 0 0 0 0 0 0 0 0 0 0 0 0 0 0.25 0"/>
<feBlend mode="normal" in2="BackgroundImageFix" result="effect1_dropShadow"/>
<feBlend mode="normal" in="SourceGraphic" in2="effect1_dropShadow" result="shape"/>
</filter>
<filter id="filter3_d" x="41.3" y="63.5" width="204.076" height="58" filterUnits="userSpaceOnUse" color-interpolation-filters="sRGB">
<feFlood flood-opacity="0" result="BackgroundImageFix"/>
<feColorMatrix in="SourceAlpha" type="matrix" values="0 0 0 0 0 0 0 0 0 0 0 0 0 0 0 0 0 0 127 0"/>
<feOffset dy="4"/>
<feGaussianBlur stdDeviation="2"/>
<feColorMatrix type="matrix" values="0 0 0 0 0 0 0 0 0 0 0 0 0 0 0 0 0 0 0.25 0"/>
<feBlend mode="normal" in2="BackgroundImageFix" result="effect1_dropShadow"/>
<feBlend mode="normal" in="SourceGraphic" in2="effect1_dropShadow" result="shape"/>
</filter>
</defs>
</svg>
